<svg width="1445" height="77" viewBox="0 0 1445 77" fill="none" xmlns="http://www.w3.org/2000/svg">
<path d="M0 1.02298C80.2778 1.47829 160.556 1.93359 240.833 5.65573C321.111 9.37786 401.389 16.3668 481.667 19.554C561.944 22.7411 642.222 22.1274 722.5 20.4805C802.778 18.8336 883.056 16.1526 963.333 11.215C1043.61 6.27741 1123.89 -0.916794 1204.17 0.0964327C1284.44 1.10966 1364.72 10.3323 1445 19.554V77C1364.72 77 1284.44 77 1204.17 77C1123.89 77 1043.61 77 963.333 77C883.056 77 802.778 77 722.5 77C642.222 77 561.944 77 481.667 77C401.389 77 321.111 77 240.833 77C160.556 77 80.2778 77 0 77V1.02298Z" fill="black"/>
</svg>
