<svg width="60" height="1019" viewBox="0 0 60 1019" fill="none" xmlns="http://www.w3.org/2000/svg">
<path d="M18.9922 985.131C22.768 995.743 25.308 1004.27 34.6238 1019H60L60 830.024L60 653.809L60 463.36L60 284.692L60 137.928L60 -2.65531e-05L58.9396 7.85342C50.0975 55.9565 39.5185 112.404 31.308 159.035C26.4133 186.031 22.1501 211.555 19.1501 229.717C16.5347 245.549 13.308 262.603 10.1501 284.692C3.29624 324.363 -3.0634 366.687 1.78167 404.458C4.76091 438.428 16.4659 467.287 25.9396 496.247C34.308 521.28 39.6764 550.731 40.7817 575.274C43.6238 607.669 36.5185 657.245 21.6764 696.022C12.5185 726.455 3.04503 763.268 0.992305 791.247C-1.69181 849.167 1.46596 875.672 5.72924 915.922C10.1503 945.864 12.5978 967.16 18.9922 985.131Z" fill="white"/>
</svg>
