<svg width="1442" height="77" viewBox="0 0 1442 77" fill="none" xmlns="http://www.w3.org/2000/svg">
<path d="M0 1.02298C80.1111 1.47829 160.222 1.93359 240.333 5.65573C320.444 9.37786 400.556 16.3668 480.667 19.554C560.778 22.7411 640.889 22.1274 721 20.4805C801.111 18.8336 881.222 16.1526 961.333 11.215C1041.44 6.27741 1121.56 -0.916794 1201.67 0.0964326C1281.78 1.10966 1361.89 10.3323 1442 19.554V77C1361.89 77 1281.78 77 1201.67 77C1121.56 77 1041.44 77 961.333 77C881.222 77 801.111 77 721 77C640.889 77 560.778 77 480.667 77C400.556 77 320.444 77 240.333 77C160.222 77 80.1111 77 0 77V1.02298Z" fill="#7A4A31"/>
</svg>
