<svg width="1442" height="94" viewBox="0 0 1442 94" fill="none" xmlns="http://www.w3.org/2000/svg">
<path d="M0 1.23602C80.1111 1.78615 160.222 2.33627 240.333 6.83356C320.444 11.3309 400.556 19.7753 480.667 23.6262C560.778 27.4771 640.889 26.7355 721 24.7457C801.111 22.7559 881.222 19.5165 961.333 13.5506C1041.44 7.58472 1121.56 -1.10772 1201.67 0.116515C1281.78 1.34075 1361.89 12.4841 1442 23.6262V93.0357C1361.89 93.0357 1281.78 93.0357 1201.67 93.0357C1121.56 93.0357 1041.44 93.0357 961.333 93.0357C881.222 93.0357 801.111 93.0357 721 93.0357C640.889 93.0357 560.778 93.0357 480.667 93.0357C400.556 93.0357 320.444 93.0357 240.333 93.0357C160.222 93.0357 80.1111 93.0357 0 93.0357V1.23602Z" fill="#369392"/>
</svg>
