<svg width="24" height="24" viewBox="0 0 24 24" fill="none" xmlns="http://www.w3.org/2000/svg">
<path d="M4.09277 18.7228V16.7701H6.04545V9.93572C6.04545 8.58511 6.45226 7.3891 7.26588 6.34767C8.07949 5.28997 9.1372 4.59839 10.439 4.27295V3.58951C10.439 3.1827 10.5773 2.84098 10.8539 2.56435C11.1468 2.27145 11.4967 2.125 11.9035 2.125C12.3103 2.125 12.652 2.27145 12.9286 2.56435C13.2215 2.84098 13.368 3.1827 13.368 3.58951V4.27295C14.6698 4.59839 15.7275 5.28997 16.5411 6.34767C17.3547 7.3891 17.7615 8.58511 17.7615 9.93572V16.7701H19.7142V18.7228H4.09277ZM11.9035 21.6518C11.3665 21.6518 10.9027 21.4647 10.5122 21.0904C10.1379 20.6999 9.95081 20.2361 9.95081 19.6991H13.8562C13.8562 20.2361 13.6609 20.6999 13.2704 21.0904C12.8961 21.4647 12.4405 21.6518 11.9035 21.6518ZM7.99813 16.7701H15.8088V9.93572C15.8088 8.86174 15.4264 7.94236 14.6616 7.17756C13.8969 6.41276 12.9775 6.03036 11.9035 6.03036C10.8295 6.03036 9.91013 6.41276 9.14533 7.17756C8.38053 7.94236 7.99813 8.86174 7.99813 9.93572V16.7701Z" fill="#1D1B20"/>
</svg>
