<svg width="22" height="22" viewBox="0 0 22 22" fill="none" xmlns="http://www.w3.org/2000/svg">
<path fill-rule="evenodd" clip-rule="evenodd" d="M10.5423 2.521C6.11253 2.521 2.52148 6.11205 2.52148 10.5418C2.52148 14.9716 6.11253 18.5627 10.5423 18.5627C14.9721 18.5627 18.5632 14.9716 18.5632 10.5418C18.5632 6.11205 14.9721 2.521 10.5423 2.521ZM1.14648 10.5418C1.14648 5.35265 5.35314 1.146 10.5423 1.146C15.7315 1.146 19.9382 5.35265 19.9382 10.5418C19.9382 15.731 15.7315 19.9377 10.5423 19.9377C5.35314 19.9377 1.14648 15.731 1.14648 10.5418Z" fill="#6A6060"/>
<path fill-rule="evenodd" clip-rule="evenodd" d="M17.8478 17.8474C18.1163 17.5789 18.5516 17.5789 18.8201 17.8474L20.6535 19.6807C20.9219 19.9492 20.9219 20.3845 20.6535 20.653C20.385 20.9215 19.9497 20.9215 19.6812 20.653L17.8478 18.8196C17.5794 18.5511 17.5794 18.1158 17.8478 17.8474Z" fill="#6A6060"/>
</svg>
