<svg width="36" height="31" viewBox="0 0 36 31" fill="none" xmlns="http://www.w3.org/2000/svg">
<path fill-rule="evenodd" clip-rule="evenodd" d="M8.47388 26.205H11.016V23.9077H8.47388V26.205ZM10.1687 21.6128H15.253V19.3167H10.1687V21.6128ZM31.3194 12.6201C31.1279 9.95677 30.1297 8.0006 28.5671 7.29113C27.3181 6.72652 25.9546 7.07098 24.8717 8.13975C24.2912 6.49383 23.4625 4.6905 22.6269 3.57383C19.8899 -0.0852964 16.7283 -0.940763 13.2328 1.03594C10.3881 2.63738 7.95612 7.31166 7.65699 11.5662C6.09272 12.3122 4.24372 13.9626 3.45226 16.5861L5.02162 17.4541C5.63767 15.4124 7.30448 14.0174 8.68318 13.5406C9.05857 13.4106 9.32126 12.952 9.32126 12.4285C9.32126 8.91994 11.4957 4.50116 13.8844 3.15522C16.769 1.52413 19.1705 2.1777 21.4372 5.20834C22.3363 6.40942 23.3328 8.85264 23.7777 10.5214C23.829 10.7158 23.9185 10.8878 24.0367 11.0192C24.1549 11.1506 24.2973 11.2363 24.4488 11.2673C24.6001 11.3 24.7551 11.2758 24.8967 11.1973C25.0383 11.1187 25.161 10.989 25.2513 10.8225C25.9436 9.57466 27.0562 9.03172 28.0299 9.46972C29.0654 9.93738 29.6586 11.435 29.6586 13.576C29.6586 14.1372 29.9585 14.6162 30.367 14.7075C33.8328 15.4888 35.5903 17.8111 35.5903 21.6128C35.5903 28.2661 31.0237 28.4965 30.506 28.501H16.1004V30.7971H30.506C32.8507 30.7971 35.5903 28.8775 35.5903 21.6128C35.5903 16.9294 35.1742 13.763 31.3194 12.6201ZM10.1687 30.7971H13.5582V28.501H10.1687V30.7971ZM12.7108 26.205H22.0321V23.9077H12.7108V26.205ZM0.847388 26.205H6.7791V23.9077H0.847388V26.205ZM2.54216 21.6128H7.62649V19.3167H2.54216V21.6128ZM3.38955 30.7971H8.47388V28.501H3.38955V30.7971ZM0 30.7971H1.69478V28.501H0V30.7971Z" fill="black"/>
</svg>
