<svg width="190" height="1038" viewBox="0 0 190 1038" fill="none" xmlns="http://www.w3.org/2000/svg">
<path d="M60.142 1003.5C72.0988 1014.31 80.142 1023 109.642 1038H190L190 845.5L190 666L190 472L190 290L190 140.5L190 -1.66892e-06L186.642 7.99988C158.642 56.9999 125.142 114.5 99.142 162C83.642 189.5 70.142 215.5 60.642 234C52.36 250.128 42.142 267.5 32.142 290C10.4381 330.411 -9.70078 373.524 5.64196 412C15.0762 446.602 52.142 476 82.142 505.5C108.642 531 125.642 561 129.142 586C138.142 619 115.642 669.5 68.642 709C39.6421 740 9.6426 777.5 3.1423 806C-5.3574 865 4.64219 892 18.1426 933C32.1426 963.5 39.893 985.193 60.142 1003.5Z" fill="white"/>
</svg>
