<svg width="70" height="56" viewBox="0 0 70 56" fill="none" xmlns="http://www.w3.org/2000/svg">
<path d="M10.5 45.5C8.575 45.5 6.92708 44.8146 5.55625 43.4438C4.18542 42.0729 3.5 40.425 3.5 38.5V7C3.5 5.075 4.18542 3.42708 5.55625 2.05625C6.92708 0.685417 8.575 0 10.5 0H59.5C61.425 0 63.0729 0.685417 64.4437 2.05625C65.8146 3.42708 66.5 5.075 66.5 7H47.25C43.8667 7 40.9792 8.19583 38.5875 10.5875C36.1958 12.9792 35 15.8667 35 19.25V45.5H10.5ZM47.25 56C45.7917 56 44.5521 55.4896 43.5312 54.4688C42.5104 53.4479 42 52.2083 42 50.75V19.25C42 17.7917 42.5104 16.5521 43.5312 15.5312C44.5521 14.5104 45.7917 14 47.25 14H64.75C66.2083 14 67.4479 14.5104 68.4688 15.5312C69.4896 16.5521 70 17.7917 70 19.25V50.75C70 52.2083 69.4896 53.4479 68.4688 54.4688C67.4479 55.4896 66.2083 56 64.75 56H47.25ZM0 56V49H35V56H0ZM56 29.75C56.7583 29.75 57.3854 29.4875 57.8813 28.9625C58.3771 28.4375 58.625 27.825 58.625 27.125C58.625 26.3667 58.3771 25.7396 57.8813 25.2437C57.3854 24.7479 56.7583 24.5 56 24.5C55.3 24.5 54.6875 24.7479 54.1625 25.2437C53.6375 25.7396 53.375 26.3667 53.375 27.125C53.375 27.825 53.6375 28.4375 54.1625 28.9625C54.6875 29.4875 55.3 29.75 56 29.75Z" fill="#1C1B1F"/>
</svg>
