<svg width="63" height="70" viewBox="0 0 63 70" fill="none" xmlns="http://www.w3.org/2000/svg">
<path d="M45.5 70V59.5H35V52.5H45.5V42H52.5V52.5H63V59.5H52.5V70H45.5ZM28 70C19.8917 67.9583 13.1979 63.3063 7.91875 56.0438C2.63958 48.7813 0 40.7167 0 31.85V10.5L28 0L56 10.5V31.85C56 32.55 55.9854 33.2646 55.9562 33.9938C55.9271 34.7229 55.8542 35.4375 55.7375 36.1375C54.6875 35.7875 53.5646 35.5104 52.3688 35.3063C51.1729 35.1021 49.9917 35 48.825 35C45.5583 35.0583 42.5396 35.7729 39.7687 37.1437C36.9979 38.5146 34.65 40.3667 32.725 42.7L31.2375 34.2125C32.4042 33.6292 33.3229 32.7833 33.9938 31.675C34.6646 30.5667 35 29.3417 35 28C35 26.075 34.3146 24.4271 32.9438 23.0562C31.5729 21.6854 29.925 21 28 21C26.075 21 24.4271 21.6854 23.0562 23.0562C21.6854 24.4271 21 26.075 21 28C21 29.3417 21.3354 30.5667 22.0063 31.675C22.6771 32.7833 23.5958 33.6292 24.7625 34.2125L22.75 45.5H30.8C29.925 47.0167 29.2396 48.6646 28.7438 50.4438C28.2479 52.2229 28 54.075 28 56C28 58.275 28.3646 60.4771 29.0938 62.6063C29.8229 64.7354 30.8583 66.7333 32.2 68.6C31.5 68.8917 30.8 69.1542 30.1 69.3875C29.4 69.6208 28.7 69.825 28 70Z" fill="#1C1B1F"/>
</svg>
